<svg width="33" height="22" viewBox="0 0 33 22" fill="none" xmlns="http://www.w3.org/2000/svg">
<path d="M30.2351 1H2.76494C1.79019 1 1 1.79153 1 2.76794V19.2321C1 20.2085 1.79019 21 2.76494 21H30.2351C31.2098 21 32 20.2085 32 19.2321V2.76794C32 1.79153 31.2098 1 30.2351 1Z" fill="white" stroke="black" stroke-width="0.8" stroke-linecap="round" stroke-linejoin="round"/>
<path fill-rule="evenodd" clip-rule="evenodd" d="M18 8.99975C18 11.7615 15.7614 14 13 14C10.2386 14 8 11.7615 8 8.99975C8 6.23849 10.2386 4 13 4C15.7619 4 18 6.23849 18 8.99975Z" fill="black"/>
<path fill-rule="evenodd" clip-rule="evenodd" d="M25 8.99975C25 11.7615 22.7614 14 20 14C17.2386 14 15 11.7615 15 8.99975C15 6.23849 17.2386 4 20 4C22.7619 4 25 6.23849 25 8.99975Z" fill="black"/>
<path d="M4 15.066H5.17308L5.62572 17.4179L6.07667 15.066H7.24595V18.9318H6.51752V15.9836L5.95287 18.9318H5.29308L4.73012 15.9836V18.9318H4V15.066ZM8.49018 17.0384L7.72427 16.9301C7.75333 16.7507 7.79501 16.6097 7.84933 16.507C7.90406 16.4038 7.98239 16.3153 8.08471 16.2391C8.15797 16.185 8.25903 16.1427 8.38787 16.1128C8.51629 16.0829 8.65524 16.0677 8.80472 16.0677C9.04514 16.0677 9.23841 16.0857 9.38367 16.1218C9.52936 16.1579 9.65062 16.2329 9.74788 16.3474C9.8161 16.4264 9.86999 16.5386 9.90915 16.6836C9.94873 16.8285 9.9681 16.9673 9.9681 17.0987V18.3356C9.9681 18.4676 9.97483 18.5708 9.98704 18.6458C9.99968 18.7202 10.0266 18.815 10.0687 18.9312H9.31672C9.29346 18.8787 9.27373 18.8236 9.25777 18.7665C9.24538 18.7083 9.23623 18.6489 9.2304 18.5888C9.12514 18.7242 9.02072 18.8206 8.91714 18.8787C8.75967 18.9599 8.59193 18.9994 8.42323 18.9949C8.17397 18.9949 7.98449 18.9176 7.85522 18.7625C7.79349 18.6922 7.74412 18.6045 7.71064 18.5056C7.67716 18.4067 7.66039 18.2992 7.66154 18.1906C7.66154 17.978 7.70785 17.8031 7.80091 17.6661C7.89438 17.5285 8.06618 17.427 8.31671 17.3598C8.51272 17.31 8.70774 17.2534 8.90156 17.1901C8.99083 17.1574 9.08513 17.1145 9.18493 17.062C9.18493 16.9301 9.16472 16.8376 9.12388 16.7851C9.08345 16.7321 9.01187 16.7061 8.90913 16.7061C8.77818 16.7061 8.67966 16.7343 8.6144 16.7907C8.56303 16.8342 8.52176 16.9171 8.49018 17.0384ZM9.18493 17.6024C9.07184 17.6563 8.95691 17.703 8.8405 17.7422C8.67755 17.8003 8.57481 17.8573 8.53144 17.9137C8.51059 17.9385 8.49384 17.9689 8.48224 18.0029C8.47064 18.0369 8.46446 18.0737 8.46408 18.1111C8.46408 18.1957 8.48639 18.2651 8.5306 18.3187C8.5744 18.3722 8.63881 18.3988 8.72429 18.3988C8.81355 18.3988 8.89692 18.37 8.97314 18.3119C9.04216 18.2644 9.09915 18.1906 9.13693 18.0998C9.16893 18.0158 9.18493 17.9075 9.18493 17.7738V17.6024ZM10.3108 18.1562L11.1062 18.0558C11.1391 18.1827 11.185 18.273 11.2439 18.3277C11.3029 18.3824 11.3816 18.4095 11.4801 18.4095C11.5879 18.4095 11.6713 18.3785 11.7302 18.317C11.7514 18.2982 11.7688 18.2728 11.7808 18.2428C11.7929 18.2129 11.7992 18.1795 11.7993 18.1455C11.7993 18.0682 11.769 18.0085 11.7088 17.9662C11.6654 17.9363 11.5504 17.8996 11.3639 17.8556C11.086 17.7907 10.8923 17.7304 10.7845 17.6751C10.6751 17.6186 10.5801 17.5211 10.5108 17.3942C10.4373 17.2647 10.3981 17.1058 10.3997 16.943C10.3997 16.7586 10.4397 16.5995 10.5197 16.4659C10.5997 16.3322 10.71 16.2329 10.8502 16.1669C10.9909 16.101 11.1787 16.0677 11.4153 16.0677C11.6646 16.0677 11.849 16.0936 11.9673 16.1444C12.086 16.1951 12.1854 16.2741 12.2646 16.3813C12.3441 16.4884 12.4098 16.634 12.4625 16.8167L11.7029 16.9171C11.6883 16.8379 11.6534 16.768 11.6043 16.7197C11.5362 16.6614 11.4565 16.6319 11.3757 16.6351C11.2852 16.6351 11.2195 16.6565 11.1778 16.6994C11.1589 16.717 11.1434 16.7404 11.1326 16.7677C11.1218 16.795 11.1161 16.8253 11.1159 16.8562C11.1159 16.925 11.1424 16.9769 11.1946 17.0119C11.2473 17.0468 11.3614 17.0784 11.5374 17.1066C11.8035 17.1472 12.0018 17.2036 12.1319 17.2758C12.2616 17.3474 12.361 17.4506 12.43 17.5843C12.4991 17.7174 12.5332 17.8646 12.5332 18.0242C12.5332 18.1861 12.497 18.3435 12.4237 18.4963C12.3513 18.6492 12.2363 18.771 12.0797 18.8618C11.9227 18.9521 11.7092 18.9972 11.4389 18.9972C11.057 18.9972 10.785 18.9244 10.6228 18.7783C10.4618 18.6341 10.3498 18.4105 10.3113 18.1562H10.3108ZM13.884 15.066V16.1314H14.3248V16.9143H13.884V17.9086C13.884 18.0282 13.8924 18.1072 13.9092 18.1455C13.9357 18.2053 13.9816 18.2358 14.0473 18.2358C14.1063 18.2358 14.1888 18.2126 14.2953 18.1669L14.3543 18.9075C14.1564 18.9656 13.9711 18.9949 13.7993 18.9949C13.5997 18.9949 13.4528 18.9605 13.3581 18.8917C13.2634 18.823 13.1893 18.7126 13.1484 18.5792C13.1033 18.4399 13.081 18.2132 13.081 17.9007V16.9143H12.7854V16.1314H13.0806V15.617L13.884 15.066ZM17.0255 17.7981H15.4191C15.4334 17.9701 15.4684 18.0981 15.5236 18.1827C15.5605 18.2418 15.607 18.2888 15.6595 18.3203C15.7121 18.3517 15.7692 18.3668 15.8267 18.3643C15.9055 18.3643 15.98 18.3384 16.0511 18.2854C16.0945 18.2516 16.1408 18.1929 16.1909 18.1088L16.98 18.2064C16.8596 18.4879 16.7139 18.6892 16.5434 18.8116C16.3724 18.9334 16.1278 18.9949 15.809 18.9949C15.532 18.9949 15.3143 18.9425 15.1556 18.8381C14.9968 18.7332 14.865 18.5674 14.7606 18.3395C14.6566 18.1117 14.6044 17.8443 14.6044 17.5364C14.6044 17.0987 14.7088 16.7445 14.9181 16.4738C15.1274 16.203 15.4166 16.0677 15.7855 16.0677C16.0844 16.0677 16.3206 16.1286 16.4941 16.2499C16.6672 16.3711 16.799 16.5471 16.8899 16.7772C16.98 17.0073 17.0255 17.3074 17.0255 17.6762V17.7981ZM16.2107 17.2837C16.1947 17.0761 16.153 16.9272 16.0857 16.8381C16.0183 16.7479 15.929 16.7033 15.8187 16.7033C15.7594 16.7012 15.7006 16.7186 15.6474 16.754C15.5943 16.7894 15.5484 16.8417 15.5139 16.9064C15.465 16.991 15.4339 17.1162 15.4212 17.2837H16.2107ZM17.4053 16.1314H18.1556V16.59C18.2272 16.3914 18.3021 16.2549 18.3788 16.1799C18.4554 16.1055 18.5506 16.0677 18.6634 16.0677C18.7813 16.0677 18.9106 16.1173 19.0508 16.2155L18.8032 16.9803C18.7085 16.9272 18.6339 16.9013 18.5788 16.9013C18.5303 16.899 18.4822 16.9139 18.4393 16.9443C18.3964 16.9748 18.3603 17.0199 18.3346 17.075C18.252 17.2386 18.2103 17.5443 18.2103 17.9927V18.9318H17.4053V16.1314ZM21.1594 17.3525L21.9409 17.6683C21.8883 17.9616 21.8058 18.207 21.6925 18.4038C21.5801 18.6012 21.4399 18.7496 21.2727 18.8494C21.1051 18.9498 20.8921 19 20.6335 19C20.3203 19 20.0639 18.9391 19.8651 18.8167C19.6664 18.6949 19.4946 18.48 19.3501 18.172C19.2057 17.8646 19.1337 17.4709 19.1337 16.991C19.1337 16.3508 19.2609 15.859 19.5148 15.5155C19.7687 15.1715 20.1278 15 20.5927 15C20.9561 15 21.2416 15.0981 21.4496 15.2956C21.6576 15.4924 21.8121 15.7947 21.9131 16.2025L21.1258 16.4371C21.1073 16.3455 21.0782 16.2583 21.0394 16.1788C20.9918 16.0899 20.929 16.0176 20.8563 15.9679C20.7811 15.9177 20.6981 15.8923 20.6142 15.894C20.4121 15.894 20.2571 16.0028 20.1493 16.2211C20.0681 16.3824 20.0272 16.6368 20.0272 16.9825C20.0272 17.4117 20.0761 17.7056 20.1729 17.8646C20.2702 18.0237 20.4066 18.1038 20.5826 18.1038C20.7531 18.1038 20.882 18.0395 20.9695 17.9109C21.0567 17.7829 21.1199 17.5962 21.159 17.3525H21.1594ZM23.0492 17.0384L22.2832 16.9301C22.3123 16.7507 22.354 16.6097 22.4083 16.507C22.463 16.4038 22.5414 16.3153 22.6437 16.2391C22.7169 16.185 22.818 16.1427 22.9468 16.1128C23.0753 16.0829 23.2146 16.0677 23.3637 16.0677C23.6041 16.0677 23.7974 16.0857 23.9426 16.1218C24.0883 16.1579 24.21 16.2329 24.3069 16.3474C24.3751 16.4264 24.429 16.5386 24.4685 16.6836C24.5077 16.8285 24.5275 16.9673 24.5275 17.0987V18.3356C24.5275 18.4676 24.5338 18.5708 24.546 18.6458C24.5587 18.7202 24.586 18.815 24.6277 18.9312H23.8757C23.8524 18.8787 23.8327 18.8236 23.8167 18.7665C23.8044 18.7083 23.7952 18.6489 23.7894 18.5888C23.6841 18.7242 23.5797 18.8206 23.4761 18.8787C23.3186 18.9599 23.1509 18.9994 22.9822 18.9949C22.7329 18.9949 22.5435 18.9176 22.4142 18.7625C22.3525 18.6922 22.3031 18.6045 22.2696 18.5056C22.2361 18.4067 22.2194 18.2992 22.2205 18.1906C22.2205 17.978 22.2668 17.8031 22.3599 17.6661C22.4534 17.5285 22.6252 17.427 22.8757 17.3598C23.0717 17.31 23.2667 17.2534 23.4605 17.1901C23.5498 17.1574 23.6441 17.1145 23.7439 17.062C23.7439 16.9301 23.7237 16.8376 23.6828 16.7851C23.6424 16.7321 23.5709 16.7061 23.4681 16.7061C23.3372 16.7061 23.2386 16.7343 23.1734 16.7907C23.122 16.8342 23.0807 16.9171 23.0492 17.0384ZM23.7439 17.6024C23.6308 17.6563 23.5159 17.703 23.3995 17.7422C23.2369 17.8003 23.1338 17.8573 23.0904 17.9137C23.0697 17.9386 23.053 17.969 23.0414 18.003C23.0299 18.037 23.0238 18.0738 23.0235 18.1111C23.0235 18.1957 23.0454 18.2651 23.0896 18.3187C23.1334 18.3722 23.1982 18.3988 23.2833 18.3988C23.3725 18.3988 23.4559 18.37 23.5325 18.3119C23.6014 18.2643 23.6582 18.1905 23.6959 18.0998C23.7279 18.0158 23.7439 17.9075 23.7439 17.7738V17.6024ZM25.0197 16.1314H25.7692V16.59C25.8416 16.3914 25.9166 16.2549 25.9928 16.1799C26.0698 16.1055 26.1646 16.0677 26.2774 16.0677C26.3953 16.0677 26.5246 16.1173 26.6652 16.2155L26.4168 16.9803C26.3229 16.9272 26.2479 16.9013 26.1928 16.9013C26.1443 16.899 26.0962 16.9139 26.0533 16.9443C26.0104 16.9748 25.9743 17.0199 25.9486 17.075C25.866 17.2386 25.8248 17.5443 25.8248 17.9927V18.9318H25.0197V16.1314ZM29 15.066V18.9318H28.2497V18.5178C28.1448 18.6932 28.0492 18.8122 27.9625 18.8731C27.8471 18.9543 27.7183 18.9949 27.5768 18.9949C27.2918 18.9949 27.0745 18.85 26.9242 18.5595C26.7738 18.2696 26.6985 17.9171 26.6985 17.5025C26.6985 17.0384 26.7818 16.683 26.9477 16.4365C27.1136 16.1912 27.3246 16.0677 27.5806 16.0677C27.7052 16.0677 27.8185 16.0959 27.92 16.1523C28.0219 16.2087 28.112 16.2933 28.1907 16.4055V15.066H29ZM28.1966 17.5234C28.1966 17.3034 28.1621 17.1399 28.0922 17.0316C28.0602 16.9798 28.0199 16.9383 27.9742 16.9103C27.9286 16.8822 27.8788 16.8684 27.8286 16.8697C27.7833 16.8693 27.7385 16.8831 27.6978 16.91C27.6572 16.937 27.6218 16.9763 27.5945 17.0248C27.5313 17.1286 27.4998 17.3029 27.4998 17.5471C27.4998 17.7755 27.5322 17.943 27.5974 18.0491C27.6255 18.099 27.6619 18.1395 27.7037 18.1674C27.7455 18.1952 27.7916 18.2095 27.8383 18.2092C27.8873 18.2102 27.9358 18.1961 27.9802 18.1682C28.0246 18.1402 28.0636 18.0991 28.0943 18.0479C28.1625 17.9408 28.1966 17.7659 28.1966 17.5234Z" fill="black"/>
</svg>
