<svg width="33" height="22" viewBox="0 0 33 22" fill="none" xmlns="http://www.w3.org/2000/svg">
<path d="M30.2351 1H2.76494C1.79019 1 1 1.79153 1 2.76794V19.2321C1 20.2085 1.79019 21 2.76494 21H30.2351C31.2098 21 32 20.2085 32 19.2321V2.76794C32 1.79153 31.2098 1 30.2351 1Z" fill="white" stroke="black" stroke-width="0.8" stroke-linecap="round" stroke-linejoin="round"/>
<path fill-rule="evenodd" clip-rule="evenodd" d="M13.6348 7.1381L12.4085 14.8669H14.3712L15.5985 7.1381H13.6348ZM10.7569 7.1381L8.88529 12.4539L8.66383 11.3089L8.61484 11.0532C8.20955 10.1732 7.61407 9.39935 6.87357 8.79033C6.58059 8.55028 6.28564 8.34538 6 8.17062L7.70109 14.8669H9.74612L12.8695 7.1381H10.7569ZM18.4177 9.28399C18.4177 8.41017 20.3294 8.52216 21.1697 8.99674L21.4499 7.33698C21.4499 7.33698 20.5852 7 19.6842 7C18.7102 7 16.3966 7.43691 16.3966 9.55819C16.3966 11.5554 19.1119 11.58 19.1119 12.6286C19.1119 13.6767 16.6769 13.4894 15.8734 12.828L15.5809 14.5631C15.5809 14.5631 16.4574 15 17.7969 15C19.1364 15 21.1579 14.2884 21.1579 12.3539C21.1579 10.3446 18.4177 10.1573 18.4177 9.28399ZM26.4283 7.1381H24.8501C24.1211 7.1381 23.9437 7.71412 23.9437 7.71412L21.0163 14.8669H23.0623L23.4714 13.7189H25.9672L26.1975 14.8669H28L26.4283 7.1381ZM24.0373 12.133L25.0687 9.2403L25.6492 12.133H24.0373Z" fill="black"/>
<path fill-rule="evenodd" clip-rule="evenodd" d="M8.30026 7.66794C8.30026 7.66794 8.21573 7 7.31432 7H4.0382L4 7.1259C4 7.1259 5.57466 7.42864 7.08515 8.56367C8.52893 9.64824 9 11 9 11L8.30026 7.66794Z" fill="black"/>
</svg>
